<svg xmlns="http://www.w3.org/2000/svg" viewBox="0 0 2947 1030.34"><defs><style>.a{isolation:isolate;}.b{fill:#f0f;}.c{mix-blend-mode:multiply;}.d{fill:#ff0;}</style></defs><title>Untitled-11</title><g class="a"><circle class="b" cx="87.3" cy="87.3" r="87.3"/><circle class="b" cx="87.3" cy="301.24" r="87.3"/><circle class="b" cx="87.3" cy="515.17" r="87.3"/><circle class="b" cx="87.3" cy="729.1" r="87.3"/><circle class="b" cx="87.3" cy="943.03" r="87.3"/><circle class="b" cx="288.65" cy="194.27" r="87.3"/><circle class="b" cx="288.65" cy="408.2" r="87.3"/><circle class="b" cx="288.65" cy="622.13" r="87.3"/><circle class="b" cx="490" cy="255.62" r="87.3"/><circle class="b" cx="490" cy="469.55" r="87.3"/><circle class="b" cx="691.35" cy="364.16" r="87.3"/><circle class="b" cx="892.7" cy="469.55" r="87.3"/><circle class="b" cx="691.35" cy="578.09" r="87.3"/><circle class="b" cx="490" cy="683.48" r="87.3"/><circle class="b" cx="288.65" cy="836.07" r="87.3"/><g class="c"><circle class="d" cx="2859.7" cy="943.03" r="87.3"/><circle class="d" cx="2859.7" cy="729.1" r="87.3"/><circle class="d" cx="2859.7" cy="515.17" r="87.3"/><circle class="d" cx="2859.7" cy="301.24" r="87.3"/><circle class="d" cx="2859.7" cy="87.3" r="87.3"/><circle class="d" cx="2658.35" cy="836.07" r="87.3"/><circle class="d" cx="2658.35" cy="622.13" r="87.3"/><circle class="d" cx="2658.35" cy="408.2" r="87.3"/><circle class="d" cx="2457" cy="774.72" r="87.3"/><circle class="d" cx="2457" cy="560.79" r="87.3"/><circle class="d" cx="2255.65" cy="666.18" r="87.3"/><circle class="d" cx="2054.3" cy="560.79" r="87.3"/><circle class="d" cx="2255.65" cy="452.25" r="87.3"/><circle class="d" cx="2457" cy="346.85" r="87.3"/><circle class="d" cx="2658.35" cy="194.27" r="87.3"/></g></g></svg>