<svg xmlns="http://www.w3.org/2000/svg" viewBox="0 0 658 479"><defs><style>.a,.b{fill:#d33d3d;}.b{font-size:308.62px;font-family:DDCHardware-Compressed, DDC Hardware;}</style></defs><title>logo</title><polygon class="a" points="333 398 465 351 465 411 335 479 329 479 201 410 201 351 333 398"/><path class="a" d="M541.57,168.48l-.83,77c-.13,12.36,1.42,21.23,3.77,21.08l3.7-.23c.35,0,.46,1.14.44,2.6l-.52,49.4c0,1.46-.15,2.68-.5,2.84l-7.74,3.46-.34,31.22,10.78-7c2.37-1.55,4.18-10.75,4.29-21.9l.75-71.06c.11-11.15-1.5-19.49-3.85-19.86l-3.75-.58c-.23,0-.39-1.54-.38-2.72l.52-48.79c0-1.78.21-3.16.44-3l7.41,4,.28-27.11-10.29-7.67C543.43,148.36,541.7,156.11,541.57,168.48Z"/><polygon class="a" points="574.67 269.2 568.19 166.84 562.73 162.76 560.88 341.93 566.51 338.25 567.49 241.78 574.15 333.27 579.67 329.67 581.15 176.51 575.63 172.39 574.67 269.2"/><path class="a" d="M602.9,191.64l-10-7.63c-2.39-1.81-4.07,3.07-4.15,11.51l-1.09,115.55c-.07,8.44,1.53,13.45,4,11.84l10.25-6.79c2.37-1.57,4.13-7.73,4.19-14.65l.8-94.85C606.87,199.7,605.23,193.4,602.9,191.64Zm-3.51,106.41a4,4,0,0,1-.37,1.85l-4.38,2c-.23.11-.28-1.05-.28-1.64l.86-93.64c0-.79,0-2.17.31-2l4.31,2.42a5.51,5.51,0,0,1,.33,2.25Z"/><path class="a" d="M628.3,210.91l-10-7.63c-2.39-1.81-4,1.53-4.1,7.84l-.69,86.46c-.05,6.31,1.57,9.79,4,8.18L627.72,299c2.37-1.57,4.11-6.19,4.14-11l.4-65.75C632.29,217.43,630.63,212.67,628.3,210.91Zm-3.09,75.61a2.37,2.37,0,0,1-.37,1.37l-4.37,2c-.24.11-.29-.73-.29-1.16l.51-68.42c0-.57,0-1.58.3-1.42l4.32,2.42a3.49,3.49,0,0,1,.34,1.67Z"/><path class="a" d="M653.17,230.24,640,220.39l-.35,70.16,6.76-4.4.06-16.85,6.66-1.8a6.7,6.7,0,0,0,4.89-6.82V239.34A11.85,11.85,0,0,0,653.17,230.24Zm-1.87,29.5c0,.32-.18.74-.41.76l-4.41.33.09-26.75,4.38,2.37a1.31,1.31,0,0,1,.4,1Z"/><path class="a" d="M13.81,218.37,4,225.25a9.6,9.6,0,0,0-4,7.22V271l6.58,4.31V260.27l4.74,1.24v16.93l6.58,4.31V222.37C17.9,218.39,16.24,216.67,13.81,218.37Zm-2.49,35.1-4.74-.35v-21a1.77,1.77,0,0,1,.83-1.57L10.49,229c.47-.24.83.1.83.88Z"/><path class="a" d="M34.61,251.46l2.25,0v28.66c0,.83-.18,1.3-.47,1.16l-3.91-1.78a2,2,0,0,1-.42-1.47V219.64a2.58,2.58,0,0,1,.42-1.62l10.43-5.26V197l-12.75,9.11c-3,2.12-4.79,7.1-4.79,13v59.74c0,5.62,1.83,10.62,4.79,12.59L38,296.62c3,2,4.86-1.71,4.86-9.05v-36l1.95,0V237L34.61,238.8Z"/><polygon class="a" points="50.67 304.23 65.43 313.91 65.43 294.96 57.37 291.25 57.37 255.98 63.94 256.39 63.94 238.32 57.37 239.14 57.37 205.12 65.43 201.03 65.43 182.08 50.67 192.46 50.67 304.23"/><path class="a" d="M95,159.76,84.75,167.1c-2.43,1.73-4.09,9.47-4.09,18.51V309.43c0,9,1.66,16.69,4.09,18.31L95,334.57c2.37,1.57,4.09-4.91,4.09-15.43V175C99.09,164.47,97.37,158.07,95,159.76ZM92.39,306.38c0,1.24-.24,2.13-.36,2.08l-4.38-2.07c-.24-.11-.3-1.57-.3-2.29V190.37c0-1,0-2.63.3-2.79L92,185.27a5.42,5.42,0,0,1,.36,2.56Z"/><polygon class="a" points="106.91 341.1 113.55 345.45 113.55 268.32 120.36 269.17 120.36 239.5 113.55 239.99 113.55 176.59 121.78 172.41 121.78 142.46 106.91 152.91 106.91 341.1"/><polygon class="a" points="329 0 335 0 465 82 465 141 335 78 329 78 201 141 201 78 329 0"/><text class="b" transform="translate(301.18 341.47) scale(0.19 1)">the</text></svg>