<?xml version="1.0" encoding="utf-8"?>
<!-- Generator: Adobe Illustrator 23.1.1, SVG Export Plug-In . SVG Version: 6.00 Build 0)  -->
<svg version="1.1" id="Layer_1" xmlns="http://www.w3.org/2000/svg" xmlns:xlink="http://www.w3.org/1999/xlink" x="0px" y="0px"
	 viewBox="0 0 1439.5 1019.9" style="enable-background:new 0 0 1439.5 1019.9;" xml:space="preserve">
<style type="text/css">
	.st0{fill:#3C6872;}
</style>
<title>int2_type</title>
<path class="st0" d="M-1647.3,28c4.6,0,15.7,18,20.3,18c7.5,0,15.4-18,21.5-18c12.8,0,35.8,119.7,35.8,375.7
	c0,128.7-15.2,266.4-15.2,365.2c0,46.4,1.5,70.3,1.5,116.7c0,71.8-11.1,109.3-46.6,109.3c-26.6,0-42.5-18-42.5-98.8
	c0-18,1-67.3,1-95.8c0-82.3-11.3-217-11.3-381.7C-1683,162.7-1663.8,28-1647.3,28z M-1674.6,328.8c0,140.7,17.4,223,23.9,336.8
	c8,130.2,17.9,154.2,33.5,154.2c19.3,0,27.5-74.8,27.5-155.7c0-142.2-22.9-485-62-485C-1668.3,179.2-1674.6,231.6-1674.6,328.8z"/>
<path class="st0" d="M-1476.1,337.8c18.1,0,33.6,98.8,33.6,342.7c0,236.5-13.8,318.8-32.8,318.8c-11.3,0-19.8-32.9-19.8-76.3
	c0-15,1.2-21,2.7-21c2.7,0,4.8,10.5,9.2,10.5c6,0,11.8-40.4,11.8-115.2c0-182.6-19.3-312.8-40.3-312.8c-13.3,0-19.8,37.4-19.8,118.2
	c0,139.2,22,263.4,22,335.3c0,37.4-5.1,50.9-10.1,50.9c-4.3,0-11.1-4.5-16.2-4.5c-13.5,0-21,4.5-22.9,4.5c-3.1,0-4.8-9-4.8-28.4
	c0.1-13.5,1.1-27,2.9-40.4c8.2-70.3,9.7-146.7,9.7-250c0-136.2-6-321.8-6-425.1c0-146.7,14-227.5,34.3-227.5
	c14.5,0,34.5,41.9,48.8,41.9c11.6,0,15.7-32.9,19.1-32.9c2.7,0,3.9,10.5,3.9,28.4c0,94.3-12.1,212.5-27.8,212.5
	c-16.4,0-38.6-106.3-54.6-106.3c-10.1,0-15.9,34.4-15.9,110.8c0,88.3,11.8,173.6,26.1,173.6
	C-1505.8,445.6-1494.9,337.8-1476.1,337.8z"/>
<path class="st0" d="M-1297.8,101.3c4.1-1.5,5.3,15,5.3,41.9c0,71.8-9.9,185.6-18.8,185.6c-15.5,0-32.1-208-54.6-208
	c-6.8,0-11.3,23.9-11.3,73.3c0,205,83.3,223,83.3,523.9c0,155.7-15.9,279.9-51.9,279.9c-45.6,0-57-125.7-57-233.5
	c0-88.3,9.7-160.1,23.2-160.1c4.6,0,5.8,12,6.3,35.9c1.2,101.8,12.8,187.1,44.2,187.1c18.6,0,28.2-29.9,28.2-103.3
	c0-74.8-10.1-103.3-36.9-137.7c-43.9-55.4-63.2-95.8-63.2-263.4c0-149.7,23.4-299.4,48.3-299.4
	C-1327.7,23.5-1311,104.3-1297.8,101.3z"/>
<path class="st0" d="M-1247.8,28c4.6,0,15.7,18,20.3,18c7.5,0,15.4-18,21.5-18c12.8,0,35.7,119.7,35.7,375.7
	c0,128.7-15.2,266.4-15.2,365.2c0,46.4,1.5,70.3,1.5,116.7c0,71.8-11.1,109.3-46.6,109.3c-26.6,0-42.5-18-42.5-98.8
	c0-18,1-67.3,1-95.8c0-82.3-11.3-217-11.3-381.7C-1283.5,162.7-1264.2,28-1247.8,28z M-1275.1,328.8c0,140.7,17.4,223,23.9,336.8
	c8,130.2,17.9,154.2,33.6,154.2c19.3,0,27.5-74.8,27.5-155.7c0-142.2-22.9-485-62-485C-1268.8,179.2-1275.1,231.6-1275.1,328.8z"/>
<path class="st0" d="M-1040.7,68.4c18.6,0,28.2-46.4,34-46.4c3.4,0,5.1,12,5.1,32.9c0,83.8-50.7,235-50.7,333.8
	c0,31.4,3.1,40.4,8,40.4c4.6,0,30.7-25.5,34.3-25.5c10.6,0,12.5,46.4,12.5,125.7c0,247-21.2,473-62,473c-50.5,0-64.9-182.6-64.9-461
	c0-300.8,27-519.4,48-519.4C-1064.8,22-1052.5,68.4-1040.7,68.4z M-1050.8,188.1c-6,0-14,32.9-20.3,32.9
	c-10.1,0-17.1-34.4-24.4-34.4c-8.2,0-15.2,47.9-15.2,169.1c0,324.8,41,492.4,75.6,492.4c15,0,23.7-53.9,23.7-128.7
	c0-145.2-26.3-184.1-64.9-200.6c-3.9-1.5-6.3-12-6.3-29.9c0-50.9,36.5-178.1,36.5-270.9C-1046.2,201.6-1047.5,188.1-1050.8,188.1z"
	/>
<path class="st0" d="M-940.3,41.5c12.1,0,23.7-4.5,34.3-4.5c22.5,0,37.2,91.3,37.2,203.6c0,214-48.3,226-48.3,323.3
	c0,29.9,5.1,40.4,11.6,46.4c19.6,10.5,27.8,46.4,31.4,161.6c1.7,56.9,5.3,100.3,10.4,125.7c4.6,21,6,34.4,6,52.4
	c0,32.9-5.5,46.4-18.3,46.4c-30.2,0-39.1-83.8-39.6-239.5c-0.2-91.3-6-139.2-22.5-142.2c-3.9-1.5-6-16.5-6-32.9s1.7-26.9,5.1-31.4
	c24.1-32.9,32.1-134.7,32.1-248.5c0-118.2-6.8-164.6-19.5-164.6c-20,0-34.5,167.6-34.5,402.6c0,242.5,34.8,327.8,34.8,422.1
	c0,19.5-1.5,31.4-5.5,31.4c-3.1,0-16.2-7.5-26.8-7.5s-23.9,4.5-30.9,4.5c-3.1,0-5.3-16.5-5.3-40.4c0-55.4,26.8-232,26.8-411.6
	c0-300.9-18.8-414.6-18.8-468.5c0-25.5,2.4-35.9,6.8-35.9C-974.6,34-955.8,41.5-940.3,41.5z"/>
<path class="st0" d="M-819.8,28c4.6,0,15.7,18,20.3,18c7.5,0,15.5-18,21.5-18c12.8,0,35.7,119.7,35.7,375.7
	c0,128.7-15.2,266.4-15.2,365.2c0,46.4,1.5,70.3,1.5,116.7c0,71.8-11.1,109.3-46.6,109.3c-26.5,0-42.5-18-42.5-98.8
	c0-18,1-67.3,1-95.8c0-82.3-11.3-217-11.3-381.7C-855.5,162.7-836.2,28-819.8,28z M-847,328.8c0,140.7,17.4,223,23.9,336.8
	c8,130.2,17.9,154.2,33.6,154.2c19.3,0,27.5-74.8,27.5-155.7c0-142.2-22.9-485-62-485C-840.8,179.2-847,231.6-847,328.8z"/>
<path class="st0" d="M-696.3,28c4.6,0,15.7,18,20.3,18c7.5,0,15.4-18,21.5-18c12.8,0,35.8,119.7,35.8,375.7
	c0,128.7-15.2,266.4-15.2,365.2c0,46.4,1.4,70.3,1.4,116.7c0,71.8-11.1,109.3-46.6,109.3c-26.5,0-42.5-18-42.5-98.8
	c0-18,1-67.3,1-95.8c0-82.3-11.3-217-11.3-381.7C-732,162.7-712.7,28-696.3,28z M-723.6,328.8c0,140.7,17.4,223,23.9,336.8
	c8,130.2,17.9,154.2,33.6,154.2c19.3,0,27.5-74.8,27.5-155.7c0-142.2-22.9-485-62-485C-717.3,179.2-723.6,231.6-723.6,328.8z"/>
<path class="st0" d="M-593.5,29.5c25.6,0,29.5,95.8,29.5,178.1c0,142.2-23.9,227.5-23.9,366.7c0,98.8,16.4,134.7,30.9,134.7
	c33.8,0,52.1-133.2,52.1-245.5c0-131.7-13-175.1-28-215.5c-13.8-35.9-21.7-122.7-21.7-181.1c0-26.9,2.4-35.9,7-35.9
	c4.3,0,9.9,6,15.7,6c3.6,0,10.1-6,16.9-6c13.3,0,19.6,88.3,19.6,300.9c0,208-17.6,669-87.2,669c-5.1,0-8-15-8-44.9
	c0-26.9,5.1-79.3,5.1-157.2c0-98.8-14.7-194.6-19.3-489.4c-2.9-184.1-14-193.1-14-226S-607,29.5-593.5,29.5z"/>
<path class="st0" d="M-485.2,34c5.8,0,13.8,6,20.8,6c11.8,0,21.2-6,25.6-6c7,0,10.1,25.4,10.1,95.8c0,145.2-15.7,260.4-15.7,365.2
	c0,68.9,4.6,100.3,14.2,100.3c12.3,0,28.7-70.3,28.7-211c0-160.1-15.2-267.9-15.2-318.8c0-25.5,2.2-32.9,6-32.9
	c6.5,0,14.7,4.5,25.6,4.5c8.2,0,15.9-6,19.1-6c2.9,0,5.1,13.5,5.1,31.4c0,38.9-12.6,101.8-18.8,285.9c-3.9,107.8-5.8,253-5.6,372.7
	c0.7,187.1-7.7,272.4-25.1,272.4c-14.2,0-23.7-18-39.6-18c-14.7,0-22,13.5-29,13.5c-3.9,0-6.5-7.5-6.5-34.4
	c0-19.5,1.2-55.4,1.2-85.3c0-76.3,5.1-110.8,15.9-110.8c14.5,0,34.3,56.9,55.8,56.9c11.6,0,20.5-32.9,20.5-88.3
	c0-65.9-8.4-82.3-38.6-89.8c-37.2-9-56-49.4-56-149.7c0-53.9,4.3-103.3,25.1-136.2c17.1-25.5,21-49.4,21-79.3
	c0-44.9-9.7-74.8-22.2-98.8c-20.3-38.9-27.5-68.8-27.5-112.2C-490.3,44.5-488.4,34-485.2,34z"/>
<path class="st0" d="M-315.7,595.3c0,18-1,29.9-4.8,29.9c-1,0-3.4-1.5-5.3-1.5s-3.6,1.5-5.8,1.5c-2.7,0-4.8-9-4.8-31.4
	c0-35.9,6.8-70.3,6.8-145.2c0-103.3-25.3-306.8-25.3-366.7c0-29.9,2.4-47.9,6.3-47.9c5.8,0,17.6,4.5,27,4.5c8.7,0,19.8-4.5,22.4-4.5
	c4.3,0,6.3,12,6.3,41.9c0,76.3-29.5,254.5-29.5,372.7C-322.4,517.4-315.7,553.4-315.7,595.3z M-326.3,996.4
	c-11.3,0-27.3-92.8-27.3-158.7c0-71.8,15-158.7,27.3-158.7c12.1,0,27,86.8,27,158.7C-299.2,903.6-315.2,996.4-326.3,996.4z"/>
<image style="overflow:visible;" width="3264" height="510" xlink:href="../../../../../Desktop/Screen Shot 2019-10-23 at 11.30.23 PM.png"  transform="matrix(0.441 0 0 0.441 0 329.6)">
</image>
<path d="M4296.2,2021.9c-34.7,4.4-68.1,15.4-102,23.6c-44.9,11-90.5,14.5-136.1,10.5c-3.1-0.3-6.2-0.6-9.2-0.9
	c-18-2-36.1-5.2-54.1-9.6c-30.3-7.4-60.2-16.9-91-22c-22.6-4.7-45.4-7.9-68.6-7.6c-25.7,0.3-50.9,4.7-75.9,10.6
	c-28.9,6.2-57,15.5-85.9,21.9c-43,9.4-85.9,11.7-128.6,7.4c-0.4,0-0.7-0.1-1.1-0.1c-1.2-0.1-2.3-0.3-3.5-0.4
	c-0.9-0.1-1.7-0.2-2.6-0.3c-17.3-2.1-34.6-5.2-51.9-9.4c-33.9-8.3-67.3-19.2-102-23.6c-21.2-2.7-42.5-3.8-63.8-3.3
	c-15.4,0.3-30.7,1.3-46,3.3c-38.3,4.9-75.1,17.4-112.6,26.1c-14.4,3.2-28.9,5.9-43.6,7.5c-32.9,3.5-66.2,3-98.9-1.4
	c-15.2-2.1-30.2-5-44.8-8.6c-6.8-1.7-13.6-3.4-20.4-5.2c-26.6-7.1-53-14.9-80.4-18.4c-18-2.3-36.1-3.4-54.2-3.4
	c-18.1,0-36.2,1.1-54.2,3.4c-34.7,4.4-68.1,15.4-102,23.6c-66.7,16.3-132.6,16.3-199.3,0c-33.9-8.3-67.3-19.2-102-23.6
	c-19.5-2.5-39.1-3.6-58.7-3.4c-19.6-0.2-39.2,0.9-58.7,3.4c-34.7,4.4-68.1,15.4-102,23.6c-66.8,16.3-132.6,16.3-199.3,0
	c-33.9-8.3-67.3-19.2-102-23.6c-18-2.3-36.1-3.4-54.2-3.4c-18.1,0-36.2,1.1-54.2,3.4c-27.4,3.5-53.8,11.2-80.4,18.4
	c-6.8,1.8-13.6,3.6-20.4,5.2c-14.7,3.6-29.7,6.5-44.8,8.6c-32.8,4.4-66.1,4.9-98.9,1.4c-14.8-1.6-29.3-4.3-43.6-7.5
	c-37.5-8.7-74.3-21.2-112.6-26.1c-15.3-2-30.6-3-46-3.3c-21.3-0.5-42.6,0.6-63.8,3.3c-34.7,4.4-68.1,15.4-102,23.6
	c-17.3,4.2-34.6,7.4-51.9,9.4c-0.9,0.1-1.7,0.2-2.6,0.3c-1.2,0.1-2.3,0.3-3.5,0.4c-0.4,0-0.7,0.1-1.1,0.1
	c-42.8,4.3-85.6,2-128.6-7.4c-28.9-6.3-57-15.6-85.9-21.9c-25-5.9-50.2-10.3-75.9-10.6c-23.2-0.2-46,3-68.6,7.6
	c-30.8,5.1-60.7,14.6-91,22c-18,4.4-36,7.6-54.1,9.6c-3.1,0.3-6.2,0.6-9.2,0.9c-45.6,4-91.2,0.5-136.1-10.5
	c-33.9-8.3-67.3-19.2-102-23.6c-17.9-2.3-35.9-3.4-53.9-3.4v77.2h3.5c11.8,0,23.6,0,35.3,0H1046h2513h752.3c11.7,0,23.5,0,35.3,0
	h3.5v-77.2C4332.1,2018.5,4314.1,2019.6,4296.2,2021.9z"/>
</svg>
